<?xml version="1.0"?>
<svg xmlns="http://www.w3.org/2000/svg" viewBox="0.0000 0.0000 358.6125 149.0625" width="358.6125mm" height="149.0625mm">
<polygon points="5.0000,5.0000 5.0000,144.0625 353.6125,144.0625 353.6125,5.0000 322.0525,5.0000 322.0525,7.5000 308.0125,7.5000 308.0125,5.0000 50.6000,5.0000 50.6000,7.5000 36.5500,7.5000 36.5500,5.0000" style="fill:none;stroke-width:0.050000mm;stroke:black"/>
<circle cx="9.0000" cy="9.0000" r="1.2000" style="fill:none;stroke-width:0.050000mm;stroke:black"/>
<circle cx="94.1531" cy="9.0000" r="1.2000" style="fill:none;stroke-width:0.050000mm;stroke:black"/>
<circle cx="179.3063" cy="9.0000" r="1.2000" style="fill:none;stroke-width:0.050000mm;stroke:black"/>
<circle cx="264.4594" cy="9.0000" r="1.2000" style="fill:none;stroke-width:0.050000mm;stroke:black"/>
<circle cx="349.6125" cy="9.0000" r="1.2000" style="fill:none;stroke-width:0.050000mm;stroke:black"/>
<circle cx="9.0000" cy="74.5313" r="1.2000" style="fill:none;stroke-width:0.050000mm;stroke:black"/>
<circle cx="349.6125" cy="74.5313" r="1.2000" style="fill:none;stroke-width:0.050000mm;stroke:black"/>
<circle cx="9.0000" cy="140.0625" r="1.2000" style="fill:none;stroke-width:0.050000mm;stroke:black"/>
<circle cx="94.1531" cy="140.0625" r="1.2000" style="fill:none;stroke-width:0.050000mm;stroke:black"/>
<circle cx="179.3063" cy="140.0625" r="1.2000" style="fill:none;stroke-width:0.050000mm;stroke:black"/>
<circle cx="264.4594" cy="140.0625" r="1.2000" style="fill:none;stroke-width:0.050000mm;stroke:black"/>
<circle cx="349.6125" cy="140.0625" r="1.2000" style="fill:none;stroke-width:0.050000mm;stroke:black"/>
</svg>