<?xml version="1.0"?>
<svg xmlns="http://www.w3.org/2000/svg" viewBox="0.0000 0.0000 358.6125 149.0625" width="358.6125mm" height="149.0625mm">
<polygon points="34.0500,5.0000 5.0000,5.0000 5.0000,144.0625 353.6125,144.0625 353.6125,5.0000 324.5625,5.0000 324.5625,12.5000 346.1125,12.5000 346.1125,136.5625 343.7313,136.5625 343.7313,138.9438 286.3437,138.9438 286.3437,136.5625 12.5000,136.5625 12.5000,12.5000 34.0500,12.5000" style="fill:none;stroke-width:0.050000mm;stroke:black"/>
<rect x="53.1000" y="5.0000" width="252.4125" height="7.5000" style="fill:none;stroke-width:0.050000mm;stroke:black"/>
<circle cx="9.0000" cy="9.0000" r="1.7500" style="fill:none;stroke-width:0.050000mm;stroke:black"/>
<circle cx="94.1531" cy="9.0000" r="1.7500" style="fill:none;stroke-width:0.050000mm;stroke:black"/>
<circle cx="179.3063" cy="9.0000" r="1.7500" style="fill:none;stroke-width:0.050000mm;stroke:black"/>
<circle cx="264.4594" cy="9.0000" r="1.7500" style="fill:none;stroke-width:0.050000mm;stroke:black"/>
<circle cx="349.6125" cy="9.0000" r="1.7500" style="fill:none;stroke-width:0.050000mm;stroke:black"/>
<circle cx="9.0000" cy="74.5313" r="1.7500" style="fill:none;stroke-width:0.050000mm;stroke:black"/>
<circle cx="349.6125" cy="74.5313" r="1.7500" style="fill:none;stroke-width:0.050000mm;stroke:black"/>
<circle cx="9.0000" cy="140.0625" r="1.7500" style="fill:none;stroke-width:0.050000mm;stroke:black"/>
<circle cx="94.1531" cy="140.0625" r="1.7500" style="fill:none;stroke-width:0.050000mm;stroke:black"/>
<circle cx="179.3063" cy="140.0625" r="1.7500" style="fill:none;stroke-width:0.050000mm;stroke:black"/>
<circle cx="264.4594" cy="140.0625" r="1.7500" style="fill:none;stroke-width:0.050000mm;stroke:black"/>
<circle cx="349.6125" cy="140.0625" r="1.7500" style="fill:none;stroke-width:0.050000mm;stroke:black"/>
</svg>